# AST/ASF file generated using VICON BodyLanguage
# -----------------------------------------------
:version 1.10
:name VICON
:units
  mass 1.0
  length 0.45
  angle deg
:documentation
   .ast/.asf automatically generated from VICON data using
   VICON BodyBuilder and BodyLanguage model FoxedUp or BRILLIANT.MOD
:root
   order TX TY TZ RX RY RZ
   axis XYZ
   position 0 0 0  
   orientation 0 0 0 
:bonedata
  begin
     id 1 
     name lhipjoint
     direction 0.561145 -0.797705 0.220866 
     length 2.46425 
     axis 0 0 0  XYZ
  end
  begin
     id 2 
     name lfemur
     direction 0.34202 -0.939693 0  
     length 7.95556  
     axis 0 0 20  XYZ
    dof rx ry rz
    limits (-160.0 20.0)
           (-70.0 70.0)
           (-60.0 70.0)
  end
  begin
     id 3 
     name ltibia
     direction 0.34202 -0.939693 0   
     length 7.9832   
     axis 0 0 20   XYZ
    dof rx
    limits (-10.0 170.0)
  end
  begin
     id 4 
     name lfoot
     direction 0.0723927 -0.198897 0.977343   
     length 2.23085   
     axis -90 7.62852e-016 20   XYZ
    dof rx rz
    limits (-45.0 90.0)
           (-70.0 20.0)
  end
  begin
     id 5 
     name ltoes
     direction 1.53826e-011 -4.21988e-011 1   
     length 1.12127   
     axis -90 7.62852e-016 20   XYZ
    dof rx
    limits (-90.0 20.0)
  end
  begin
     id 6 
     name rhipjoint
     direction -0.610499 -0.763299 0.21134   
     length 2.57533  
     axis 0 0 0  XYZ 
  end
  begin
     id 7 
     name rfemur
     direction -0.34202 -0.939693 0   
     length 8.65257   
     axis 0 0 -20   XYZ
    dof rx ry rz
    limits (-160.0 20.0)
           (-70.0 70.0)
           (-70.0 60.0)
  end
  begin
     id 8 
     name rtibia
     direction -0.342021 -0.939692 0   
     length 7.37807   
     axis 0 0 -20   XYZ
    dof rx
    limits (-10.0 170.0)
 end
 begin
     id 9 
     name rfoot
     direction -0.0239304 -0.0543852 0.998233   
     length 1.87018  
     axis -90 -7.62852e-016 -20   XYZ
    dof rx rz
    limits (-45.0 90.0)
           (-20.0 70.0)
  end
  begin
     id 10 
     name rtoes
     direction -1.53584e-011 -4.2242e-011 1   
     length 0.951568   
     axis -90 -7.62852e-016 -20   XYZ
    dof rx
    limits (-90.0 20.0)
  end
  begin
     id 11 
     name lowerback
     direction 0.00322089 0.999033 0.0438587   
     length 2.07568   
     axis 0 0 0   XYZ
    dof rx ry rz
    limits (-20.0 45.0)
           (-30.0 30.0)
           (-30.0 30.0)
  end
  begin
     id 12 
     name upperback
     direction -0.00321932 0.999732 -0.0229403   
     length 2.06253   
     axis 0 0 0   XYZ
    dof rx ry rz
    limits (-20.0 45.0)
           (-30.0 30.0)
           (-30.0 30.0)
  end
  begin
     id 13 
     name thorax
     direction -0.00537537 0.998955 -0.0453918   
     length 2.06975   
     axis 0 0 0   XYZ
    dof rx ry rz
    limits (-20.0 45.0)
           (-30.0 30.0)
           (-30.0 30.0)
  end
  begin
     id 14 
     name lowerneck
     direction -0.00013604 0.994111 0.108363   
     length 1.50836   
     axis 0 0 0   XYZ
    dof rx ry rz
    limits (-20.0 45.0)
           (-30.0 30.0)
           (-30.0 30.0)
  end
  begin
     id 15 
     name upperneck
     direction 0.0397262 0.983859 -0.174482   
     length 1.53037   
     axis 0 0 0   XYZ
    dof rx ry rz
    limits (-20.0 45.0)
           (-30.0 30.0)
           (-30.0 30.0)
  end
  begin
     id 16
     name head
     direction 0.0109991 0.997082 -0.0755378  
     length 1.56928  
     axis 0 0 0   XYZ
    dof rx ry rz
    limits (-20.0 45.0)
           (-30.0 30.0)
           (-30.0 30.0)
  end
  begin
     id 17 
     name lclavicle
     direction 0.964749 0.254 -0.068874  
     length 3.26503  
     axis 0 0 0   XYZ
    dof ry rz
    limits (-20.0 10.0)
           (0.0 20.0)
  end
  begin
     id 18 
     name lhumerus
     direction 1 -4.48941e-011 -2.05079e-027   
     length 5.68236   
     axis 180 -30 -90   XYZ
    dof rx ry rz
    limits (-60.0 90.0)
           (-90.0 90.0)
           (-90.0 90.0)
  end
  begin
     id 19
     name lradius
     direction 1 -4.48956e-011 6.2882e-027   
     length 3.17112   
     axis 180 -30 -90   XYZ
    dof rx
    limits (-10.0 170.0)
  end
  begin
     id 20
     name lwrist
     direction 1 -4.49014e-011 1.73219e-026   
     length 1.58556   
     axis -1.04724e-014 90 90   XYZ
    dof ry
    limits (-180.0 0.0)
 end
  begin
     id 21 
     name lhand
     direction 1 -4.49312e-011 3.46438e-026   
     length 0.632691   
     axis -2.21057e-014 90 90   XYZ
    dof rx rz
    limits (-90.0 90.0)
           (-45.0 45.0)
  end
  begin
     id 22 
     name lfingers
     direction 1 -4.48894e-011 6.92876e-026   
     length 0.510091   
     axis -4.42114e-014 90 90   XYZ
    dof rx
    limits (0.0 90.0)
  end
  begin
     id 23
     name lthumb
     direction 0.707107 -6.34705e-011 0.707107   
     length 0.732392   
     axis -90 45 2.85299e-015   XYZ
    dof rx rz
    limits (-45.0 45.0)
           (-45.0 45.0)
  end
  begin
     id 24 
     name rclavicle
     direction -0.954374 0.280496 -0.102435   
     length 3.25419  
     axis 0 0 0   XYZ 
    dof ry rz
    limits (-10.0 20.0)
           (-20.0 0.0)
  end
  begin
     id 25 
     name rhumerus
     direction -1 -4.48994e-011 -1.07204e-017  
     length 5.8712   
     axis 180 30 90   XYZ
    dof rx ry rz
    limits (-90.0 60.0)
           (-90.0 90.0)
           (-90.0 90.0)
  end
  begin
     id 26 
     name rradius
     direction -1 -4.48972e-011 5.89292e-027   
     length 3.37589   
     axis 180 30 90   XYZ
    dof rx
    limits (-10.0 170.0)
  end
  begin
     id 27 
     name rwrist
     direction -1 -4.48942e-011 1.73219e-026   
     length 1.68794   
     axis -1.04724e-014 -90 -90   XYZ
    dof ry
    limits (-180.0 0.0)
  end
  begin
     id 28
     name rhand
     direction -1 -4.48514e-011 3.46438e-026   
     length 0.603257   
     axis -2.21057e-014 -90 -90   XYZ
    dof rx rz
    limits (-90.0 90.0)
           (-45.0 45.0)
  end
  begin
     id 29
     name rfingers
     direction -1 -4.50028e-011 6.92876e-026   
     length 0.486362   
     axis -4.42114e-014 -90 -90   XYZ
    dof rx
    limits (0.0 90.0)
  end
  begin
     id 30
     name rthumb
     direction -0.707107 -6.34926e-011 0.707107   
     length 0.698321   
     axis -90 -45 -2.85299e-015   XYZ
    dof rx rz
    limits (-45.0 45.0)
           (-45.0 45.0)
  end
:hierarchy
  begin
    root lhipjoint rhipjoint lowerback
    lhipjoint lfemur
    lfemur ltibia
    ltibia lfoot
    lfoot ltoes
    rhipjoint rfemur
    rfemur rtibia
    rtibia rfoot
    rfoot rtoes
    lowerback upperback
    upperback thorax
    thorax lowerneck lclavicle rclavicle
    lowerneck upperneck
    upperneck head
    lclavicle lhumerus
    lhumerus lradius
    lradius lwrist
    lwrist lhand lthumb
    lhand lfingers
    rclavicle rhumerus
    rhumerus rradius
    rradius rwrist
    rwrist rhand rthumb
    rhand rfingers
  end

#!OML:ASF I:\Segmentation\Patient Classification 1\Patient 1\Session 1\Patient1.ASF
:FULLY-SPECIFIED
:DEGREES
3596
root 14.0416 18.6505 0.0104229 -91.4647 -89.5203 -263.725
lowerback -8.01604 0.62238 0.634762
upperback 2.76524 0.692502 0.886265
thorax 7.40714 0.342243 0.673103
lowerneck -14.9302 -4.5298 -2.86443
upperneck 13.475 -6.31004 4.49046
head 6.80232 -2.81667 1.26277
rclavicle -1.19271e-015 -1.98785e-015
rhumerus -0.964937 28.1485 -96.9126
rradius 105.982
rwrist -49.338
rhand -34.3596 0.0185194
rfingers 7.12502
rthumb -7.52671 -29.8276
lclavicle -1.19271e-015 -1.98785e-015
lhumerus 5.68349 -37.385 85.9288
lradius 99.5725
lwrist 4.36295
lhand -33.8891 30.3394
lfingers 7.12502
lthumb -7.07251 60.2012
rfemur -11.5568 9.38921 15.7652
rtibia 21.2022
rfoot -0.429761 13.0054
rtoes 22.3199
lfemur -10.5068 -8.2836 -16.9774
ltibia 20.4089
lfoot -28.9125 14.8791
ltoes 3.55912
3597
root 14.0436 18.6501 0.0108975 -97.8808 -89.5593 -257.24
lowerback -8.05501 0.629295 0.671376
upperback 2.77989 0.695005 0.91109
thorax 7.44551 0.344346 0.679693
lowerneck -15.0002 -4.51876 -2.82781
upperneck 13.4219 -6.29141 4.4543
head 6.79399 -2.80802 1.24635
rclavicle -2.68359e-015 5.1684e-015
rhumerus -1.17677 28.043 -96.8959
rradius 106.102
rwrist -48.4107
rhand -33.2329 -0.170328
rfingers 7.12502
rthumb -6.43904 -30.0524
lclavicle -2.68359e-015 5.1684e-015
lhumerus 5.25679 -36.9219 86.2581
lradius 99.7808
lwrist 4.14561
lhand -33.0357 28.899
lfingers 7.12502
lthumb -6.24866 58.7868
rfemur -11.663 9.339 15.8005
rtibia 21.2073
rfoot -0.436837 12.9051
rtoes 22.2304
lfemur -10.625 -8.25948 -16.9141
ltibia 20.4815
lfoot -28.9456 14.8965
ltoes 3.4053
3598
root 14.0453 18.6493 0.0102189 -101.143 -89.5442 -253.935
lowerback -8.0667 0.627388 0.642612
upperback 2.7969 0.694789 0.916747
thorax 7.47002 0.342659 0.702152
lowerneck -15.0251 -4.51046 -2.77907
upperneck 13.3399 -6.27972 4.42266
head 6.76868 -2.80291 1.22981
rclavicle 1.68967e-015 -7.95139e-016
rhumerus -1.355 28.0036 -96.8094
rradius 106.18
rwrist -47.4327
rhand -32.5508 -0.52888
rfingers 7.12502
rthumb -5.7805 -30.43
lclavicle 1.68967e-015 -7.95139e-016
lhumerus 4.85318 -36.4569 86.5643
lradius 99.9608
lwrist 3.73581
lhand -31.7257 27.3818
lfingers 7.12502
lthumb -4.98388 57.3031
rfemur -11.7509 9.28091 15.785
rtibia 21.2457
rfoot -0.434183 12.8194
rtoes 22.0866
lfemur -10.7072 -8.17387 -16.9131
ltibia 20.5276
lfoot -28.8829 14.8946
ltoes 3.25444
3599
root 14.0456 18.6479 0.00798389 -100.351 -89.5029 -254.725
lowerback -8.05532 0.617474 0.581443
upperback 2.82392 0.689579 0.897142
thorax 7.4918 0.337721 0.71534
lowerneck -15.0074 -4.5051 -2.71515
upperneck 13.2361 -6.27995 4.41646
head 6.73001 -2.80177 1.21871
rclavicle 1.19271e-015 -3.57812e-015
rhumerus -1.50393 27.9963 -96.6896
rradius 106.216
rwrist -46.6565
rhand -32.1873 -0.87611
rfingers 7.12502
rthumb -5.42961 -30.7866
lclavicle 1.19271e-015 -3.57812e-015
lhumerus 4.51788 -36.0684 86.7744
lradius 100.1
lwrist 3.31741
lhand -30.2636 26.197
lfingers 7.12502
lthumb -3.57202 56.1468
rfemur -11.7996 9.20554 15.7489
rtibia 21.3154
rfoot -0.415691 12.7482
rtoes 21.8929
lfemur -10.7336 -8.06527 -16.9505
ltibia 20.5467
lfoot -28.7667 14.8632
ltoes 3.20545
3600
root 14.0443 18.6463 0.00435591 -97.995 -89.4768 -257.113
lowerback -8.03838 0.604541 0.543606
upperback 2.86761 0.678881 0.859555
thorax 7.52876 0.331614 0.695812
lowerneck -14.9695 -4.50141 -2.64711
upperneck 13.1222 -6.29042 4.45053
head 6.6864 -2.80261 1.21923
rclavicle 5.96354e-016 -1.98785e-015
rhumerus -1.63383 28.0047 -96.5554
rradius 106.174
rwrist -46.0899
rhand -32.001 -0.90716
rfingers 7.12502
rthumb -5.24968 -30.8221
lclavicle 5.96354e-016 -1.98785e-015
lhumerus 4.26755 -35.7719 86.8491
lradius 100.213
lwrist 3.06404
lhand -28.842 25.4277
lfingers 7.12502
lthumb -2.19913 55.3961
rfemur -11.8114 9.10757 15.7404
rtibia 21.4063
rfoot -0.383484 12.6797
rtoes 21.684
lfemur -10.7091 -7.98181 -16.9751
ltibia 20.548
lfoot -28.6602 14.8029
ltoes 3.28013
3601
root 14.0423 18.6449 0.00026632 -95.8355 -89.4826 -259.322
lowerback -8.03417 0.596022 0.562398
upperback 2.93097 0.668011 0.812328
thorax 7.59498 0.328269 0.634645
lowerneck -14.9443 -4.50102 -2.59098
upperneck 13.0154 -6.30904 4.52109
head 6.64925 -2.80478 1.23214
rclavicle -1.07344e-014 -4.77083e-015
rhumerus -1.74596 28.0142 -96.3941
rradius 106.022
rwrist -45.6099
rhand -31.8102 -0.487166
rfingers 7.12502
rthumb -5.06549 -30.4066
lclavicle -1.07344e-014 -4.77083e-015
lhumerus 4.10451 -35.5518 86.7854
lradius 100.32
lwrist 3.04587
lhand -27.485 24.9972
lfingers 7.12502
lthumb -0.88851 54.9751
rfemur -11.8065 8.98168 15.7754
rtibia 21.5054
rfoot -0.342333 12.591
rtoes 21.478
lfemur -10.6588 -7.94264 -16.9631
ltibia 20.5453
lfoot -28.5958 14.727
ltoes 3.39891
3602
root 14.0406 18.6439 -0.00311212 -94.6974 -89.5055 -260.5
lowerback -8.05611 0.598038 0.623589
upperback 3.00781 0.665907 0.765572
thorax 7.69132 0.331215 0.551855
lowerneck -14.9447 -4.50824 -2.56473
upperneck 12.9259 -6.33493 4.61074
head 6.62394 -2.80973 1.25452
rclavicle -7.90169e-015 -5.1684e-015
rhumerus -1.84609 28.0066 -96.1745
rradius 105.753
rwrist -45.0919
rhand -31.4317 0.230033
rfingers 7.12502
rthumb -4.70003 -29.6978
lclavicle -7.90169e-015 -5.1684e-015
lhumerus 4.00653 -35.3796 86.6283
lradius 100.428
lwrist 3.22178
lhand -26.1088 24.807
lfingers 7.12502
lthumb 0.440618 54.7863
rfemur -11.8128 8.83328 15.8292
rtibia 21.6021
rfoot -0.296958 12.4696
rtoes 21.2663
lfemur -10.6178 -7.93877 -16.9296
ltibia 20.5516
lfoot -28.5755 14.6554
ltoes 3.48841
3603
root 14.0397 18.643 -0.00525975 -95.6128 -89.5237 -259.598
lowerback -8.10707 0.610485 0.679118
upperback 3.08343 0.676417 0.739546
thorax 7.80298 0.339533 0.496255
lowerneck -14.9522 -4.52352 -2.58013
upperneck 12.8514 -6.36083 4.68741
head 6.60554 -2.81741 1.27917
rclavicle 1.11319e-014 1.39149e-014
rhumerus -1.95987 27.9786 -95.8672
rradius 105.384
rwrist -44.478
rhand -30.7966 0.912898
rfingers 7.12502
rthumb -4.08669 -29.0277
lclavicle 1.11319e-014 1.39149e-014
lhumerus 3.92296 -35.2162 86.4587
lradius 100.527
lwrist 3.48985
lhand -24.6716 24.734
lfingers 7.12502
lthumb 1.82875 54.7059
rfemur -11.8505 8.68654 15.8713
rtibia 21.6922
rfoot -0.249622 12.3272
rtoes 21.0564
lfemur -10.6095 -7.95609 -16.8983
ltibia 20.5733
lfoot -28.6008 14.5999
ltoes 3.59573
3604
root 14.0395 18.6421 -0.00647983 -99.4664 -89.526 -255.728
lowerback -8.17547 0.631482 0.703115
upperback 3.14052 0.699932 0.74006
thorax 7.90429 0.351963 0.48833
lowerneck -14.9426 -4.54239 -2.62638
upperneck 12.7932 -6.38047 4.73199
head 6.58903 -2.82625 1.2994
rclavicle -1.68967e-015 -3.18055e-015
rhumerus -2.12484 27.9141 -95.4849
rradius 104.956
rwrist -43.8032
rhand -29.8826 1.21622
rfingers 7.12502
rthumb -3.20409 -28.7395
lclavicle -1.68967e-015 -3.18055e-015
lhumerus 3.79817 -35.0414 86.3262
lradius 100.596
lwrist 3.75317
lhand -23.2552 24.6266
lfingers 7.12502
lthumb 3.19664 54.5824
rfemur -11.9248 8.56789 15.8902
rtibia 21.7758
rfoot -0.199901 12.1855
rtoes 20.8541
lfemur -10.6379 -7.98407 -16.8787
ltibia 20.6111
lfoot -28.6722 14.5648
ltoes 3.79444
